<?xml version="1.0" encoding="UTF-8" standalone="no"?>
<svg
   xmlns:dc="http://purl.org/dc/elements/1.1/"
   xmlns:cc="http://creativecommons.org/ns#"
   xmlns:rdf="http://www.w3.org/1999/02/22-rdf-syntax-ns#"
   xmlns:svg="http://www.w3.org/2000/svg"
   xmlns="http://www.w3.org/2000/svg"
   xmlns:sodipodi="http://sodipodi.sourceforge.net/DTD/sodipodi-0.dtd"
   xmlns:inkscape="http://www.inkscape.org/namespaces/inkscape"
   version="1.1"
   id="svg2"
   xml:space="preserve"
   width="288"
   height="276"
   viewBox="0 0 288 276"
   sodipodi:docname="verafied-logo.ai"><metadata
     id="metadata8"><rdf:RDF><cc:Work
         rdf:about=""><dc:format>image/svg+xml</dc:format><dc:type
           rdf:resource="http://purl.org/dc/dcmitype/StillImage" /></cc:Work></rdf:RDF></metadata><defs
     id="defs6"><clipPath
       clipPathUnits="userSpaceOnUse"
       id="clipPath18"><path
         d="M 0,0 H 216 V 207 H 0 Z"
         id="path16" /></clipPath></defs><sodipodi:namedview
     pagecolor="#ffffff"
     bordercolor="#666666"
     borderopacity="1"
     objecttolerance="10"
     gridtolerance="10"
     guidetolerance="10"
     inkscape:pageopacity="0"
     inkscape:pageshadow="2"
     inkscape:window-width="640"
     inkscape:window-height="480"
     id="namedview4" /><g
     id="g10"
     inkscape:groupmode="layer"
     inkscape:label="verafied-logo"
     transform="matrix(1.3333333,0,0,-1.3333333,0,276)"><g
       id="g12"><g
         id="g14"
         clip-path="url(#clipPath18)"><g
           id="g20"
           transform="translate(117.5119,188.6288)"><path
             d="m 0,0 c -9.312,-6.746 -16.673,-17.243 -19.958,-28.675 l -0.083,0.225 c -9.58,6.739 -21.644,9.733 -33.824,7.069 -53.932,-11.796 -45.111,-65.624 -45.111,-65.624 3.938,-37.344 45.426,-52.191 57.282,-55.776 1.811,-0.548 3.757,-0.254 5.333,0.793 l 4.848,3.221 c 1.956,1.299 1.535,4.282 -0.708,4.976 -17.34,5.369 -64.809,23.632 -59.223,64.948 0,0 8.143,57.924 68.009,25.679 3.432,-1.603 7.583,-4.112 11.472,-7.971 0,0 2.165,13.862 6.02,20.275 7.126,13.291 19.372,26.267 43.796,24.339 23.628,-1.864 33.209,-17.941 35.637,-40.941 0.247,-2.34 1.597,-4.955 3.869,-5.563 l 4.973,-0.937 c 1.278,-0.342 2.547,0.636 2.518,1.958 C 84.331,-28.783 76.169,-6.437 60.23,2.259 42.774,11.784 17.146,12.423 0,0"
             style="fill:#ed1c24;fill-opacity:1;fill-rule:nonzero;stroke:none"
             id="path22" /></g><g
           id="g24"
           transform="translate(143.1437,34.8837)"><path
             d="m 0,0 c 0,0 -9.896,4.168 -40.59,12.42 -5.037,1.354 -10.398,-0.566 -13.398,-4.833 -0.971,-1.382 -0.244,-3.285 1.391,-3.709 33.51,-8.691 59.218,-27.162 68.915,-34.876 1.566,-1.246 3.858,-0.055 3.737,1.942 -1.027,17.003 -5.283,69.074 34.765,118.372 0.736,0.906 0.38,2.265 -0.815,3.089 l -2.777,0.553 C 47.109,94.069 42.346,92.734 39.619,89.169 2.584,40.73 0,0 0,0"
             style="fill:#231f20;fill-opacity:1;fill-rule:nonzero;stroke:none"
             id="path26" /></g></g></g></g></svg>
