<?xml version="1.0" encoding="UTF-8" standalone="no"?>
<svg
   xmlns:dc="http://purl.org/dc/elements/1.1/"
   xmlns:cc="http://creativecommons.org/ns#"
   xmlns:rdf="http://www.w3.org/1999/02/22-rdf-syntax-ns#"
   xmlns:svg="http://www.w3.org/2000/svg"
   xmlns="http://www.w3.org/2000/svg"
   xmlns:sodipodi="http://sodipodi.sourceforge.net/DTD/sodipodi-0.dtd"
   xmlns:inkscape="http://www.inkscape.org/namespaces/inkscape"
   version="1.1"
   id="svg2"
   xml:space="preserve"
   width="192"
   height="192"
   viewBox="0 0 192 192"
   sodipodi:docname="verafied-checkmark.ai"><metadata
     id="metadata8"><rdf:RDF><cc:Work
         rdf:about=""><dc:format>image/svg+xml</dc:format><dc:type
           rdf:resource="http://purl.org/dc/dcmitype/StillImage" /></cc:Work></rdf:RDF></metadata><defs
     id="defs6"><clipPath
       clipPathUnits="userSpaceOnUse"
       id="clipPath18"><path
         d="M 0,0 H 144 V 144 H 0 Z"
         id="path16" /></clipPath></defs><sodipodi:namedview
     pagecolor="#ffffff"
     bordercolor="#666666"
     borderopacity="1"
     objecttolerance="10"
     gridtolerance="10"
     guidetolerance="10"
     inkscape:pageopacity="0"
     inkscape:pageshadow="2"
     inkscape:window-width="640"
     inkscape:window-height="480"
     id="namedview4" /><g
     id="g10"
     inkscape:groupmode="layer"
     inkscape:label="verafied-checkmark"
     transform="matrix(1.3333333,0,0,-1.3333333,0,192)"><g
       id="g12"><g
         id="g14"
         clip-path="url(#clipPath18)"><g
           id="g20"
           transform="translate(72.4251,40.5073)"><path
             d="m 0,0 c 0,0 -9.896,4.168 -40.59,12.421 -5.037,1.353 -10.398,-0.567 -13.398,-4.834 -0.971,-1.382 -0.244,-3.285 1.391,-3.709 33.51,-8.691 59.218,-27.162 68.915,-34.876 1.566,-1.246 3.857,-0.055 3.737,1.942 -1.026,17.003 -5.283,69.074 34.765,118.372 0.736,0.906 0.38,2.265 -0.815,3.09 l -2.777,0.552 C 47.11,94.069 42.345,92.734 39.62,89.169 2.583,40.73 0,0 0,0"
             style="fill:#231f20;fill-opacity:1;fill-rule:nonzero;stroke:none"
             id="path22" /></g></g></g></g></svg>
