<?xml version="1.0" encoding="UTF-8" standalone="no"?>
<svg
   xmlns:dc="http://purl.org/dc/elements/1.1/"
   xmlns:cc="http://creativecommons.org/ns#"
   xmlns:rdf="http://www.w3.org/1999/02/22-rdf-syntax-ns#"
   xmlns:svg="http://www.w3.org/2000/svg"
   xmlns="http://www.w3.org/2000/svg"
   xmlns:sodipodi="http://sodipodi.sourceforge.net/DTD/sodipodi-0.dtd"
   xmlns:inkscape="http://www.inkscape.org/namespaces/inkscape"
   version="1.1"
   id="svg2"
   xml:space="preserve"
   width="504"
   height="168"
   viewBox="0 0 504 168"
   sodipodi:docname="verafied-text-white.ai"><metadata
     id="metadata8"><rdf:RDF><cc:Work
         rdf:about=""><dc:format>image/svg+xml</dc:format><dc:type
           rdf:resource="http://purl.org/dc/dcmitype/StillImage" /></cc:Work></rdf:RDF></metadata><defs
     id="defs6"><clipPath
       clipPathUnits="userSpaceOnUse"
       id="clipPath18"><path
         d="M 0,0 H 378 V 126 H 0 Z"
         id="path16" /></clipPath></defs><sodipodi:namedview
     pagecolor="#ffffff"
     bordercolor="#666666"
     borderopacity="1"
     objecttolerance="10"
     gridtolerance="10"
     guidetolerance="10"
     inkscape:pageopacity="0"
     inkscape:pageshadow="2"
     inkscape:window-width="640"
     inkscape:window-height="480"
     id="namedview4" /><g
     id="g10"
     inkscape:groupmode="layer"
     inkscape:label="verafied-text-white"
     transform="matrix(1.3333333,0,0,-1.3333333,0,168)"><g
       id="g12"><g
         id="g14"
         clip-path="url(#clipPath18)"><g
           id="g20"
           transform="translate(134.0272,27.5732)"><path
             d="m 0,0 c 0.715,0 1.231,0.678 1.064,1.373 -1.253,5.214 -4.551,7.821 -9.893,7.821 -5.024,0 -8.443,-2.573 -10.256,-7.72 C -19.337,0.759 -18.812,0 -18.053,0 Z m -18.893,-7.508 c -0.656,0 -1.161,-0.578 -1.092,-1.23 0.249,-2.376 1.24,-4.37 2.974,-5.984 2.053,-1.883 4.668,-2.825 7.845,-2.825 4.014,0 7.17,1.383 9.467,4.151 0.344,0.415 0.92,0.55 1.391,0.29 l 5.023,-2.77 c 0.587,-0.324 0.755,-1.108 0.337,-1.632 -2.173,-2.723 -4.401,-4.663 -6.686,-5.818 -2.586,-1.321 -5.821,-1.982 -9.701,-1.982 -6.158,0 -11.065,1.813 -14.72,5.441 -3.656,3.627 -5.484,8.478 -5.484,14.553 0,6.353 2.011,11.668 6.032,15.943 3.993,4.245 9.041,6.368 15.143,6.368 5.905,0 10.558,-1.912 13.961,-5.736 3.458,-3.852 5.188,-9.012 5.188,-15.48 0,-0.507 -0.024,-1.253 -0.072,-2.238 C 10.685,-7.04 10.204,-7.508 9.62,-7.508 Z"
             style="fill:#ffffff;fill-opacity:1;fill-rule:nonzero;stroke:none"
             id="path22" /></g><g
           id="g24"
           transform="translate(163.4701,43.2636)"><path
             d="M 0,0 C 0.657,0 1.166,-0.575 1.085,-1.228 L 0.814,-3.417 c 3.149,2.98 6.328,4.471 9.533,4.471 2.483,0 4.769,-0.801 6.858,-2.402 0.469,-0.359 0.53,-1.048 0.169,-1.516 L 12.746,-8.836 C 12.394,-9.29 11.74,-9.407 11.273,-9.071 9.826,-8.029 8.378,-7.508 6.93,-7.508 5.749,-7.508 4.708,-7.74 3.809,-8.204 2.909,-8.668 2.128,-9.4 1.467,-10.397 c -0.66,-0.999 -1.208,-2.286 -1.644,-3.86 -0.436,-1.575 -0.78,-3.459 -1.033,-5.652 l -2.328,-18.864 c -0.067,-0.548 -0.533,-0.959 -1.085,-0.959 h -7.119 c -0.657,0 -1.166,0.574 -1.086,1.226 L -8.204,-0.96 C -8.137,-0.412 -7.671,0 -7.119,0 Z"
             style="fill:#ffffff;fill-opacity:1;fill-rule:nonzero;stroke:none"
             id="path26" /></g><g
           id="g28"
           transform="translate(213.0277,24.5361)"><path
             d="m 0,0 c 0,3.515 -1.012,6.368 -3.037,8.562 -2.025,2.221 -4.64,3.333 -7.845,3.333 -3.487,0 -6.411,-1.365 -8.773,-4.092 -2.362,-2.756 -3.543,-6.13 -3.543,-10.123 0,-3.488 0.984,-6.342 2.952,-8.562 1.969,-2.223 4.5,-3.333 7.593,-3.333 3.429,0 6.396,1.393 8.9,4.176 C -1.251,-7.199 0,-3.854 0,0 M 11.195,17.5 6.572,-20.046 c -0.067,-0.548 -0.533,-0.959 -1.085,-0.959 h -7.113 c -0.659,0 -1.168,0.578 -1.085,1.232 l 0.054,0.419 c 0.121,0.954 -0.949,1.568 -1.731,1.009 -3.347,-2.392 -6.792,-3.589 -10.332,-3.589 -5.259,0 -9.546,1.786 -12.865,5.357 -3.318,3.571 -4.977,8.197 -4.977,13.878 0,6.551 1.899,11.921 5.695,16.112 3.852,4.189 8.786,6.283 14.804,6.283 2.839,0 5.258,-0.463 7.254,-1.39 1.521,-0.698 3.065,-1.774 4.632,-3.231 0.658,-0.612 1.732,-0.24 1.839,0.653 l 0.246,2.038 c 0.067,0.548 0.532,0.962 1.086,0.962 h 7.116 c 0.658,0 1.166,-0.576 1.085,-1.228"
             style="fill:#ffffff;fill-opacity:1;fill-rule:nonzero;stroke:none"
             id="path30" /></g><g
           id="g32"
           transform="translate(243.7299,33.6552)"><path
             d="m 0,0 -3.562,-29.164 c -0.067,-0.548 -0.533,-0.96 -1.084,-0.96 h -7.119 c -0.657,0 -1.166,0.575 -1.085,1.227 l 3.537,28.63 c 0.08,0.653 -0.429,1.228 -1.085,1.228 h -3.604 c -0.656,0 -1.164,0.574 -1.085,1.226 l 0.787,6.46 c 0.068,0.548 0.533,0.961 1.086,0.961 h 4.139 c 0.552,0 1.017,0.412 1.085,0.959 l 2.075,16.797 c 0.561,4.725 1.842,8.198 3.839,10.419 1.996,2.221 4.849,3.332 8.561,3.332 2.063,0 4.446,-0.602 7.148,-1.808 0.437,-0.196 0.7,-0.666 0.641,-1.142 l -0.689,-5.57 c -0.099,-0.804 -0.991,-1.199 -1.685,-0.781 -1.187,0.718 -2.303,1.077 -3.347,1.077 -1.688,0 -2.94,-0.578 -3.755,-1.73 C 4.039,30.009 3.463,27.885 3.069,24.792 L 1.363,10.834 C 1.284,10.183 1.792,9.608 2.448,9.608 H 8.415 C 9.071,9.608 9.579,9.034 9.5,8.383 L 8.712,1.922 C 8.645,1.373 8.179,0.961 7.626,0.961 H 1.085 C 0.532,0.961 0.066,0.549 0,0"
             style="fill:#ffffff;fill-opacity:1;fill-rule:nonzero;stroke:none"
             id="path34" /></g><g
           id="g36"
           transform="translate(270.8051,54.8505)"><path
             d="m 0,0 c 0,-1.35 -0.492,-2.519 -1.476,-3.502 -0.985,-0.983 -2.166,-1.476 -3.543,-1.476 -1.377,0 -2.573,0.506 -3.585,1.519 -0.984,1.068 -1.476,2.291 -1.476,3.669 0,1.378 0.477,2.545 1.434,3.501 0.984,0.984 2.151,1.476 3.5,1.476 1.378,0 2.574,-0.52 3.586,-1.56 C -0.521,2.614 0,1.405 0,0 M -1.731,-12.814 -6.355,-50.36 c -0.068,-0.548 -0.534,-0.959 -1.085,-0.959 h -7.12 c -0.657,0 -1.165,0.574 -1.085,1.226 l 4.624,37.546 c 0.067,0.548 0.533,0.96 1.084,0.96 h 7.12 c 0.657,0 1.166,-0.575 1.086,-1.227"
             style="fill:#ffffff;fill-opacity:1;fill-rule:nonzero;stroke:none"
             id="path38" /></g><g
           id="g40"
           transform="translate(304.5258,27.5732)"><path
             d="m 0,0 c 0.715,0 1.23,0.678 1.063,1.373 -1.252,5.214 -4.549,7.821 -9.892,7.821 -5.025,0 -8.443,-2.573 -10.257,-7.72 C -19.338,0.759 -18.812,0 -18.053,0 Z m -18.893,-7.508 c -0.656,0 -1.161,-0.578 -1.092,-1.23 0.249,-2.376 1.24,-4.37 2.973,-5.984 2.054,-1.883 4.669,-2.825 7.846,-2.825 4.014,0 7.17,1.383 9.467,4.151 0.344,0.415 0.92,0.55 1.391,0.29 l 5.022,-2.771 c 0.587,-0.323 0.755,-1.106 0.337,-1.631 -2.172,-2.723 -4.4,-4.663 -6.685,-5.818 -2.587,-1.321 -5.82,-1.982 -9.701,-1.982 -6.158,0 -11.065,1.813 -14.72,5.441 -3.656,3.627 -5.483,8.478 -5.483,14.553 0,6.353 2.011,11.668 6.031,15.943 3.993,4.245 9.04,6.368 15.143,6.368 5.905,0 10.557,-1.912 13.961,-5.736 3.458,-3.852 5.188,-9.012 5.188,-15.48 0,-0.507 -0.024,-1.253 -0.072,-2.238 C 10.685,-7.04 10.204,-7.508 9.62,-7.508 Z"
             style="fill:#ffffff;fill-opacity:1;fill-rule:nonzero;stroke:none"
             id="path42" /></g><g
           id="g44"
           transform="translate(354.3958,25.1269)"><path
             d="m 0,0 c 0,3.374 -1.041,6.101 -3.121,8.183 -2.082,2.08 -4.809,3.121 -8.183,3.121 -3.656,0 -6.678,-1.365 -9.068,-4.092 -2.391,-2.729 -3.586,-6.173 -3.586,-10.334 0,-3.516 1.026,-6.341 3.08,-8.479 2.052,-2.108 4.779,-3.162 8.182,-3.162 3.543,0 6.538,1.434 8.984,4.302 C -1.238,-7.649 0,-4.162 0,0 M 15.202,48.416 6.698,-20.637 C 6.63,-21.185 6.165,-21.596 5.612,-21.596 h -7.081 c -0.655,0 -1.163,0.572 -1.086,1.222 l 0.037,0.311 c 0.115,0.958 -0.987,1.585 -1.749,0.994 -1.451,-1.126 -2.756,-1.941 -3.916,-2.443 -1.66,-0.675 -3.712,-1.012 -6.158,-1.012 -5.567,0 -10.123,1.841 -13.666,5.525 -3.543,3.712 -5.314,8.491 -5.314,14.341 0,6.242 1.94,11.43 5.82,15.564 3.881,4.134 8.759,6.199 14.636,6.199 3.01,0 5.54,-0.519 7.592,-1.559 1.652,-0.827 3.363,-2.099 5.133,-3.816 0.65,-0.629 1.742,-0.26 1.851,0.638 l 4.202,34.315 c 0.067,0.548 0.533,0.961 1.085,0.961 h 7.118 c 0.657,0 1.166,-0.576 1.086,-1.228"
             style="fill:#ffffff;fill-opacity:1;fill-rule:nonzero;stroke:none"
             id="path46" /></g><g
           id="g48"
           transform="translate(67.6649,111.4765)"><path
             d="m 0,0 c -5.49,-3.978 -9.83,-10.166 -11.766,-16.905 l -0.048,0.133 c -5.648,3.972 -12.76,5.737 -19.94,4.167 -31.795,-6.955 -26.595,-38.687 -26.595,-38.687 2.322,-22.016 26.78,-30.768 33.769,-32.881 1.068,-0.323 2.215,-0.15 3.144,0.467 l 2.858,1.899 c 1.153,0.766 0.906,2.524 -0.417,2.934 -10.222,3.165 -38.206,13.932 -34.913,38.288 0,0 4.8,34.148 40.093,15.138 2.023,-0.945 4.47,-2.424 6.762,-4.699 0,0 1.277,8.172 3.549,11.953 4.201,7.835 11.42,15.485 25.818,14.348 13.931,-1.098 19.578,-10.576 21.01,-24.135 0.146,-1.38 0.941,-2.921 2.281,-3.281 l 2.931,-0.551 c 0.754,-0.202 1.502,0.375 1.485,1.154 C 49.715,-16.969 44.903,-3.796 35.507,1.331 25.216,6.946 10.108,7.322 0,0"
             style="fill:#ed1c24;fill-opacity:1;fill-rule:nonzero;stroke:none"
             id="path50" /></g><g
           id="g52"
           transform="translate(82.7753,20.8398)"><path
             d="m 0,0 c 0,0 -5.834,2.457 -23.929,7.322 -2.969,0.798 -6.13,-0.335 -7.898,-2.849 -0.573,-0.815 -0.144,-1.937 0.82,-2.187 19.755,-5.124 34.91,-16.013 40.627,-20.56 0.923,-0.735 2.274,-0.033 2.203,1.145 -0.605,10.024 -3.115,40.72 20.494,69.782 0.434,0.535 0.225,1.336 -0.48,1.823 L 30.2,54.801 C 27.772,55.456 24.963,54.669 23.356,52.566 1.523,24.012 0,0 0,0"
             style="fill:#ffffff;fill-opacity:1;fill-rule:nonzero;stroke:none"
             id="path54" /></g></g></g></g></svg>
